<svg viewBox="0 0 320 340" fill="none" xmlns="http://www.w3.org/2000/svg" aria-hidden="true">
  <defs>
    <linearGradient id="peelFlapFront" x1="320" y1="0" x2="180" y2="180" gradientUnits="userSpaceOnUse">
      <stop stop-color="#FF5C00"/>
      <stop offset="1" stop-color="#E55200"/>
    </linearGradient>
    <linearGradient id="peelFlapBack" x1="320" y1="0" x2="200" y2="200" gradientUnits="userSpaceOnUse">
      <stop stop-color="#CC4A00"/>
      <stop offset="1" stop-color="#CC4A00"/>
    </linearGradient>
    <filter id="peelShadow" x="-20%" y="-20%" width="140%" height="140%">
      <feDropShadow dx="0" dy="6" stdDeviation="10" flood-color="#000000" flood-opacity="0.22"/>
    </filter>
  </defs>
  <path d="M320 0H175L320 145V0Z" fill="#FFFFFF"/>
  <text x="252" y="48" text-anchor="middle" fill="#FF5C00" font-family="system-ui,sans-serif" font-size="14" font-weight="800" letter-spacing="1.2">WHAT'S</text>
  <text x="252" y="68" text-anchor="middle" fill="#FF5C00" font-family="system-ui,sans-serif" font-size="14" font-weight="800" letter-spacing="1.2">NEXT?</text>
  <path d="M320 148C268 118 228 88 198 62" stroke="rgba(0,0,0,0.14)" stroke-width="14" stroke-linecap="round"/>
  <path d="M320 0V210L218 108C272 58 320 28 320 0Z" fill="url(#peelFlapBack)" filter="url(#peelShadow)"/>
  <path d="M320 0V188L204 92L320 0Z" fill="url(#peelFlapFront)"/>
  <path d="M320 188L204 92" stroke="rgba(255,255,255,0.4)" stroke-width="1.5"/>
  <g transform="translate(204, 92)">
    <path d="M2 0L10-20" stroke="#E8B896" stroke-width="7" stroke-linecap="round"/>
    <path d="M-4 4L-16 16" stroke="#E8B896" stroke-width="6" stroke-linecap="round"/>
    <circle cx="8" cy="10" r="10" fill="#E8B896"/>
    <path d="M0 4C4-2 12-2 16 4" fill="#374151"/>
    <path d="M-8 20H24L20 46H-4L-8 20Z" fill="#FF5C00"/>
    <path d="M8 20L8 26L14 20" stroke="#FFFFFF" stroke-width="1.5" fill="none" stroke-linecap="round"/>
    <path d="M0 46L-4 78" stroke="#1F2937" stroke-width="10" stroke-linecap="round"/>
    <path d="M12 46L18 78" stroke="#1F2937" stroke-width="10" stroke-linecap="round"/>
    <ellipse cx="-4" cy="82" rx="9" ry="5" fill="#FFFFFF" stroke="#E5E7EB" stroke-width="1"/>
    <ellipse cx="18" cy="82" rx="9" ry="5" fill="#FFFFFF" stroke="#E5E7EB" stroke-width="1"/>
  </g>
  <text x="210" y="210" text-anchor="middle" fill="#FFFFFF" font-family="system-ui,sans-serif" font-size="11" font-weight="600" opacity="0.92">Tap to turn the page</text>
</svg>
