<svg xmlns="http://www.w3.org/2000/svg" viewBox="0 0 480 360" fill="none" aria-hidden="true">
  <rect width="480" height="360" rx="24" fill="#FFF7ED"/>
  <rect x="40" y="48" width="400" height="264" rx="16" fill="#FFFFFF" stroke="#FED7AA" stroke-width="2"/>
  <rect x="40" y="48" width="400" height="56" rx="16" fill="#FF5A00"/>
  <rect x="40" y="88" width="400" height="16" fill="#FF5A00"/>
  <text x="240" y="84" text-anchor="middle" fill="#FFFFFF" font-family="system-ui,sans-serif" font-size="18" font-weight="700" letter-spacing="2">SUPERMARKET</text>
  <rect x="72" y="128" width="88" height="72" rx="8" fill="#FFF7ED" stroke="#FF5A00" stroke-width="1.5"/>
  <rect x="80" y="136" width="72" height="12" rx="3" fill="#FF5A00" opacity="0.85"/>
  <rect x="80" y="154" width="56" height="8" rx="2" fill="#FDBA74"/>
  <rect x="80" y="168" width="64" height="8" rx="2" fill="#FDBA74"/>
  <rect x="80" y="182" width="48" height="8" rx="2" fill="#FDBA74"/>
  <rect x="196" y="128" width="88" height="72" rx="8" fill="#FFF7ED" stroke="#FF5A00" stroke-width="1.5"/>
  <rect x="204" y="136" width="72" height="12" rx="3" fill="#FF5A00" opacity="0.85"/>
  <rect x="204" y="154" width="56" height="8" rx="2" fill="#FDBA74"/>
  <rect x="204" y="168" width="64" height="8" rx="2" fill="#FDBA74"/>
  <rect x="204" y="182" width="48" height="8" rx="2" fill="#FDBA74"/>
  <rect x="320" y="128" width="88" height="72" rx="8" fill="#FFF7ED" stroke="#FF5A00" stroke-width="1.5"/>
  <rect x="328" y="136" width="72" height="12" rx="3" fill="#FF5A00" opacity="0.85"/>
  <rect x="328" y="154" width="56" height="8" rx="2" fill="#FDBA74"/>
  <rect x="328" y="168" width="64" height="8" rx="2" fill="#FDBA74"/>
  <rect x="328" y="182" width="48" height="8" rx="2" fill="#FDBA74"/>
  <rect x="72" y="224" width="336" height="56" rx="10" fill="#FFF7ED" stroke="#FED7AA" stroke-width="1.5"/>
  <rect x="88" y="240" width="48" height="24" rx="4" fill="#FF5A00" opacity="0.2"/>
  <rect x="148" y="240" width="48" height="24" rx="4" fill="#FF5A00" opacity="0.35"/>
  <rect x="208" y="240" width="48" height="24" rx="4" fill="#FF5A00" opacity="0.5"/>
  <rect x="268" y="240" width="48" height="24" rx="4" fill="#FF5A00" opacity="0.65"/>
  <rect x="328" y="240" width="48" height="24" rx="4" fill="#FF5A00"/>
  <text x="240" y="258" text-anchor="middle" fill="#9A3412" font-family="system-ui,sans-serif" font-size="11" font-weight="600" letter-spacing="1">FMCG · HOUSEHOLD · GROCERY</text>
  <circle cx="400" cy="280" r="28" fill="#FF5A00"/>
  <path d="M382 280 L396 280 L396 268 L408 280 L396 292 L396 280" fill="#FFFFFF"/>
  <rect x="56" y="296" width="120" height="28" rx="14" fill="#FF5A00"/>
  <text x="116" y="315" text-anchor="middle" fill="#FFFFFF" font-family="system-ui,sans-serif" font-size="11" font-weight="700">PREMIUM DISCOUNTS</text>
</svg>
